<mxfile host="app.diagrams.net" modified="2024-04-29T08:11:17.006Z" agent="Mozilla/5.0 (Windows NT 10.0; Win64; x64) AppleWebKit/537.36 (KHTML, like Gecko) Chrome/124.0.0.0 Safari/537.36" version="24.3.1" etag="tf0AKTo-rwZXExr7oD8X" type="github">
  <diagram name="페이지-1" id="9pgAIUehtU0RbDdtpsho">
    <mxGraphModel>
      <root>
        <mxCell id="0" />
        <mxCell id="1" parent="0" />
      </root>
    </mxGraphModel>
  </diagram>
</mxfile>
